<mxfile host="app.diagrams.net" modified="2023-04-06T05:43:56.956Z" agent="Mozilla/5.0 (Windows NT 10.0; Win64; x64) AppleWebKit/537.36 (KHTML, like Gecko) Chrome/98.0.4758.139 Safari/537.36" etag="7NdQNzTVpv9wNolQXlvs" version="21.1.4" type="github">
  <diagram name="Page-1" id="e7e014a7-5840-1c2e-5031-d8a46d1fe8dd">
    <mxGraphModel dx="1050" dy="543" grid="1" gridSize="10" guides="1" tooltips="1" connect="1" arrows="1" fold="1" page="1" pageScale="1" pageWidth="1169" pageHeight="826" background="none" math="0" shadow="0">
      <root>
        <mxCell id="0" />
        <mxCell id="1" parent="0" />
        <mxCell id="Yxz2cz5vGQCcgcal32co-47" value="Actor" style="shape=umlActor;verticalLabelPosition=bottom;verticalAlign=top;html=1;" vertex="1" parent="1">
          <mxGeometry x="70" y="390" width="40" height="80" as="geometry" />
        </mxCell>
        <mxCell id="Yxz2cz5vGQCcgcal32co-48" value="爬虫任务" style="ellipse;whiteSpace=wrap;html=1;" vertex="1" parent="1">
          <mxGeometry x="180" y="200" width="160" height="70" as="geometry" />
        </mxCell>
        <mxCell id="Yxz2cz5vGQCcgcal32co-49" value="爬虫设置" style="ellipse;whiteSpace=wrap;html=1;" vertex="1" parent="1">
          <mxGeometry x="180" y="290" width="160" height="70" as="geometry" />
        </mxCell>
        <mxCell id="Yxz2cz5vGQCcgcal32co-50" value="Use Case" style="ellipse;whiteSpace=wrap;html=1;" vertex="1" parent="1">
          <mxGeometry x="180" y="378" width="160" height="70" as="geometry" />
        </mxCell>
        <mxCell id="Yxz2cz5vGQCcgcal32co-51" value="Use Case" style="ellipse;whiteSpace=wrap;html=1;" vertex="1" parent="1">
          <mxGeometry x="180" y="470" width="160" height="70" as="geometry" />
        </mxCell>
        <mxCell id="Yxz2cz5vGQCcgcal32co-52" value="Use Case" style="ellipse;whiteSpace=wrap;html=1;" vertex="1" parent="1">
          <mxGeometry x="180" y="560" width="160" height="70" as="geometry" />
        </mxCell>
        <mxCell id="Yxz2cz5vGQCcgcal32co-53" value="" style="endArrow=open;endFill=1;endSize=12;html=1;rounded=0;entryX=0;entryY=0.5;entryDx=0;entryDy=0;" edge="1" parent="1" target="Yxz2cz5vGQCcgcal32co-48">
          <mxGeometry width="160" relative="1" as="geometry">
            <mxPoint x="110" y="420" as="sourcePoint" />
            <mxPoint x="270" y="400" as="targetPoint" />
          </mxGeometry>
        </mxCell>
        <mxCell id="Yxz2cz5vGQCcgcal32co-54" value="" style="endArrow=open;endFill=1;endSize=12;html=1;rounded=0;entryX=0;entryY=0.5;entryDx=0;entryDy=0;exitX=1;exitY=0.3333333333333333;exitDx=0;exitDy=0;exitPerimeter=0;" edge="1" parent="1" source="Yxz2cz5vGQCcgcal32co-47" target="Yxz2cz5vGQCcgcal32co-49">
          <mxGeometry width="160" relative="1" as="geometry">
            <mxPoint x="110" y="400" as="sourcePoint" />
            <mxPoint x="270" y="400" as="targetPoint" />
          </mxGeometry>
        </mxCell>
        <mxCell id="Yxz2cz5vGQCcgcal32co-55" value="" style="endArrow=open;endFill=1;endSize=12;html=1;rounded=0;entryX=0;entryY=0.5;entryDx=0;entryDy=0;exitX=1;exitY=0.3333333333333333;exitDx=0;exitDy=0;exitPerimeter=0;" edge="1" parent="1" source="Yxz2cz5vGQCcgcal32co-47" target="Yxz2cz5vGQCcgcal32co-50">
          <mxGeometry width="160" relative="1" as="geometry">
            <mxPoint x="110" y="400" as="sourcePoint" />
            <mxPoint x="270" y="400" as="targetPoint" />
          </mxGeometry>
        </mxCell>
        <mxCell id="Yxz2cz5vGQCcgcal32co-56" value="" style="endArrow=open;endFill=1;endSize=12;html=1;rounded=0;entryX=0;entryY=0.5;entryDx=0;entryDy=0;exitX=1;exitY=0.3333333333333333;exitDx=0;exitDy=0;exitPerimeter=0;" edge="1" parent="1" source="Yxz2cz5vGQCcgcal32co-47" target="Yxz2cz5vGQCcgcal32co-51">
          <mxGeometry width="160" relative="1" as="geometry">
            <mxPoint x="110" y="400" as="sourcePoint" />
            <mxPoint x="270" y="400" as="targetPoint" />
          </mxGeometry>
        </mxCell>
        <mxCell id="Yxz2cz5vGQCcgcal32co-57" value="" style="endArrow=open;endFill=1;endSize=12;html=1;rounded=0;exitX=1;exitY=0.3333333333333333;exitDx=0;exitDy=0;exitPerimeter=0;entryX=0;entryY=0.5;entryDx=0;entryDy=0;" edge="1" parent="1" source="Yxz2cz5vGQCcgcal32co-47" target="Yxz2cz5vGQCcgcal32co-52">
          <mxGeometry width="160" relative="1" as="geometry">
            <mxPoint x="460" y="400" as="sourcePoint" />
            <mxPoint x="620" y="400" as="targetPoint" />
          </mxGeometry>
        </mxCell>
      </root>
    </mxGraphModel>
  </diagram>
</mxfile>
